<svg width="34" height="34" viewBox="0 0 34 34" fill="none" xmlns="http://www.w3.org/2000/svg">
<rect width="34" height="34" fill="black" fill-opacity="0"/>
<path d="M17 34C7.61772 34 2.62683e-06 26.3823 2.62683e-06 17C2.62683e-06 7.61772 7.61772 1.31341e-06 17 1.31341e-06C26.3823 1.31341e-06 34 7.61772 34 17C34 26.3823 26.3823 34 17 34ZM17 1.29114C8.34937 1.29114 1.29114 8.34936 1.29114 17C1.29114 25.6506 8.34937 32.7089 17 32.7089C25.6506 32.7089 32.7089 25.6506 32.7089 17C32.7089 8.34936 25.6506 1.29114 17 1.29114Z" fill="#767676"/>
<rect width="18" height="18.0252" fill="black" fill-opacity="0" transform="translate(8 8)"/>
<path fill-rule="evenodd" clip-rule="evenodd" d="M23 11.0042H11C10.175 11.0042 9.5075 11.6801 9.5075 12.5063L9.5 21.5189C9.5 22.345 10.175 23.021 11 23.021H23C23.825 23.021 24.5 22.345 24.5 21.5189V12.5063C24.5 11.6801 23.825 11.0042 23 11.0042ZM23 14.0087L17 17.7639L11 14.0087V12.5066L17 16.2618L23 12.5066V14.0087Z" fill="#767676"/>
</svg>
