<svg width="34" height="34" viewBox="0 0 34 34" fill="none" xmlns="http://www.w3.org/2000/svg">
<rect width="34" height="34" fill="black" fill-opacity="0"/>
<path d="M17 34C7.61772 34 2.62683e-06 26.3823 2.62683e-06 17C2.62683e-06 7.61772 7.61772 1.31341e-06 17 1.31341e-06C26.3823 1.31341e-06 34 7.61772 34 17C34 26.3823 26.3823 34 17 34ZM17 1.29114C8.34937 1.29114 1.29114 8.34936 1.29114 17C1.29114 25.6506 8.34937 32.7089 17 32.7089C25.6506 32.7089 32.7089 25.6506 32.7089 17C32.7089 8.34936 25.6506 1.29114 17 1.29114Z" fill="#43619C"/>
<path d="M24.7901 23.7137C24.7901 24.1871 24.4028 24.5745 23.9294 24.5745H19.8838V18.4631H21.9496L22.2509 16.096H19.8838V14.5897C19.8838 13.9011 20.0559 13.4276 21.0458 13.4276H22.2939V11.2757C22.0787 11.2327 21.3471 11.1897 20.4433 11.1897C18.6357 11.1897 17.3876 12.3087 17.3876 14.3314V16.096H15.3218V18.4631H17.3876V24.5745H9.81291C9.33949 24.5745 8.95215 24.1871 8.95215 23.7137V9.64031C8.95215 9.16689 9.33949 8.77955 9.81291 8.77955H23.8863C24.3597 8.77955 24.7471 9.16689 24.7471 9.64031V23.7137H24.7901Z" fill="#43619C"/>
</svg>
