<svg width="34" height="34" viewBox="0 0 34 34" fill="none" xmlns="http://www.w3.org/2000/svg">
<rect width="34" height="34" fill="black" fill-opacity="0"/>
<path d="M17 34C7.61772 34 2.62683e-06 26.3823 2.62683e-06 17C2.62683e-06 7.61772 7.61772 1.31341e-06 17 1.31341e-06C26.3823 1.31341e-06 34 7.61772 34 17C34 26.3823 26.3823 34 17 34ZM17 1.29114C8.34937 1.29114 1.29114 8.34936 1.29114 17C1.29114 25.6506 8.34937 32.7089 17 32.7089C25.6506 32.7089 32.7089 25.6506 32.7089 17C32.7089 8.34936 25.6506 1.29114 17 1.29114Z" fill="#F24033"/>
<path d="M13.6861 15.7519V17.9468H16.6557C16.1823 19.3671 15.4507 20.1417 13.6861 20.1417C11.8785 20.1417 10.4583 18.6784 10.4583 16.8709C10.4583 15.0633 11.8785 13.6 13.6861 13.6C14.6329 13.6 15.2785 13.9443 15.838 14.4177C16.3114 13.9443 16.2684 13.9012 17.3874 12.8253C16.3975 11.9215 15.1064 11.405 13.6861 11.405C10.6304 11.405 8.17725 13.8582 8.17725 16.9139C8.17725 19.9696 10.6304 22.4227 13.6861 22.4227C18.2481 22.4227 19.3671 18.4633 18.9798 15.7949H13.6861V15.7519Z" fill="#F24033"/>
<path d="M23.6279 15.8808V13.9441H22.2937V15.8808H20.314V17.258H22.2937V19.1947H23.6279V17.258H25.5646V15.8808H23.6279Z" fill="#F24033"/>
</svg>
