<svg width="105" height="60" viewBox="0 0 105 60" fill="none" xmlns="http://www.w3.org/2000/svg">
<path d="M54.9022 0C55.4418 0.0257954 58.3706 0.438521 59.3982 0.954428C60.3488 1.41874 61.5306 2.2442 61.9673 3.09544C62.7638 4.72055 62.1729 4.51419 63.329 6.37145C64.3309 7.97076 66.9514 8.04815 68.0561 10.9114C69.3407 14.1359 67.234 15.8641 67.6965 18.6758C68.0818 21.1006 69.2379 21.0232 69.6233 23.6285C69.9316 25.7954 69.4435 27.4463 67.0028 29.742C64.9475 31.7025 61.1452 32.8891 57.6769 31.9604C60.7598 32.0894 63.2776 30.6191 64.8447 28.6586C65.8467 27.4463 66.4119 26.2081 66.489 24.7635C66.6174 21.9518 64.8704 21.7455 64.5108 19.3207C64.074 16.3801 66.3348 15.0387 65.2558 12.098C64.3052 9.62167 62.4041 9.93121 61.3764 7.89338C60.3488 5.93293 60.8626 5.46862 60.2203 3.97248C59.7322 2.81169 59.4496 2.60533 58.499 1.85727C57.3943 0.954428 54.8252 0 54.8252 0H49.9182C48.685 2.81169 47.9656 4.35941 46.1672 6.93895C45.0111 8.61565 43.9578 9.69905 42.7246 11.1178H48.0427C46.8095 13.1298 46.4241 13.7231 44.6258 15.9157C43.4697 17.3345 42.5962 18.1857 41.1831 19.4755H46.7838C45.4222 21.5391 44.8313 22.2614 42.9815 24.4798C42.031 25.6406 41.029 26.5434 39.6417 27.7042H49.9182V33.534H47.015V30.2837H33.5015V34.7463C35.3769 34.3078 36.8413 34.3852 38.8452 34.9527C41.0804 35.5976 41.6456 37.4033 43.8807 38.0481C46.1672 38.693 47.6573 37.4291 49.9182 38.0997C52.1019 38.7446 52.6928 40.5245 54.9022 41.1178C57.1631 41.7627 58.7045 40.4213 60.9911 41.0662C63.1748 41.6595 63.7657 43.491 65.9752 44.0069C67.9791 44.4712 69.4435 44.2906 71.2162 43.6715V0H54.9022ZM57.7026 37.4807H54.8252V31.9862H57.7026V37.4807Z" fill="#009B44"/>
<path d="M42.1851 22.0034H35.1457C37.7405 19.914 38.7425 18.9853 41.363 16.1994C42.442 15.0387 42.7503 14.6517 43.5724 13.6457H36.5844C39.4618 11.2467 40.8235 10.1375 43.8807 7.04209C46.8866 4.04983 47.683 2.73427 49.7897 0.0257568H33.5015V30.2837C36.199 28.1169 37.7919 26.6982 40.0013 24.454C41.1061 23.3706 41.3887 22.9836 42.1851 22.0034Z" fill="#009B44"/>
<path fill-rule="evenodd" clip-rule="evenodd" d="M33.5527 37.3775V46.9218H66.232C66.232 46.9218 64.9988 46.6638 64.8703 46.6122C62.6352 45.9674 62.3783 44.3938 60.1688 43.8005C57.8566 43.2073 56.2895 44.4712 53.9773 43.8005C51.7935 43.1557 51.254 41.3242 48.9932 40.7567C46.6553 40.1376 45.1138 41.4532 42.9043 40.7309C40.7463 40.0344 39.8985 38.1514 37.7147 37.6355C35.9677 37.1969 35.274 36.9906 33.784 37.3259C33.5527 37.3517 33.5527 37.3775 33.5527 37.3775Z" fill="#006BB5"/>
<path fill-rule="evenodd" clip-rule="evenodd" d="M55.5699 56.982C55.5442 56.982 55.5185 56.9304 55.5442 56.9046L56.4948 54.6088C56.5205 54.583 56.5462 54.5056 56.5719 54.5056C56.5976 54.5056 56.5976 54.5572 56.6232 54.6088L57.5481 56.9046C57.5481 56.9304 57.5481 56.9562 57.4968 56.9562H55.5699V56.982ZM57.6766 57.4463C57.728 57.4463 57.7537 57.4721 57.7794 57.5237L58.6015 59.4841C58.6529 59.5873 58.3959 59.6905 58.3189 59.7163C58.2161 59.7163 58.1647 59.7421 58.1647 59.7937C58.1647 59.871 58.2932 59.871 58.473 59.871C59.2951 59.8968 60.22 59.8968 60.6054 59.8968C60.9908 59.8968 60.6568 59.7421 60.5797 59.7421C60.4512 59.7421 60.6825 59.7421 60.5026 59.7163C60.2714 59.6905 59.9888 59.5615 59.6034 58.6845C58.9355 57.2657 57.2912 53.4738 57.06 52.9579C56.9572 52.7515 56.9059 52.6741 56.8031 52.6741C56.7003 52.6741 56.6489 52.7773 56.5205 53.0353L53.9257 58.8908C53.7201 59.3551 53.5146 59.6647 53.4118 59.6647C53.3091 59.6647 52.9751 59.7679 52.9751 59.8452C52.9751 59.9226 53.0265 59.9484 53.1549 59.9484C53.6945 59.9484 53.9 59.9226 54.0027 59.9226C54.311 59.9226 54.568 59.9484 54.9019 59.9484C55.0047 59.9484 55.0818 59.9226 55.0818 59.8452C55.0818 59.7937 55.0561 59.7679 54.9276 59.7679C54.9276 59.7679 54.568 59.6647 54.568 59.4841C54.568 59.3809 54.5936 59.123 54.7221 58.9166L55.2873 57.5753C55.313 57.5237 55.313 57.4979 55.3901 57.4979H57.6766V57.4463Z" fill="#009B44"/>
<path fill-rule="evenodd" clip-rule="evenodd" d="M38.5623 57.4463C38.6137 57.4463 38.6394 57.4721 38.6651 57.5237L39.4872 59.4841C39.5386 59.5873 39.2817 59.6905 39.2046 59.7163C39.1018 59.7163 39.0505 59.7421 39.0505 59.7937C39.0505 59.871 39.1789 59.871 39.3588 59.871C40.1809 59.8968 41.1058 59.8968 41.4911 59.8968C41.8765 59.8968 41.5425 59.7421 41.4654 59.7421C41.337 59.7421 41.5682 59.7421 41.3884 59.7163C41.1828 59.6905 40.9002 59.5615 40.4892 58.6845C39.8469 57.2657 38.177 53.4738 37.9457 52.9579C37.843 52.7515 37.7916 52.6741 37.6888 52.6741C37.5861 52.6741 37.5347 52.7773 37.4062 53.0353L34.8114 58.8908C34.6059 59.3551 34.4004 59.6647 33.9379 59.7163C33.8351 59.7421 34.0921 59.7421 33.9893 59.7421C33.8865 59.7421 33.8608 59.7679 33.8608 59.8194C33.8608 59.8968 33.9122 59.9226 34.0407 59.9226C34.5802 59.9226 34.7857 59.8968 34.8885 59.8968C35.1968 59.8968 35.4537 59.9226 35.7877 59.9226C35.8904 59.9226 35.9675 59.8968 35.9675 59.8194C35.9675 59.7679 35.9418 59.7421 35.8134 59.7421C35.8134 59.7421 35.4537 59.6389 35.4537 59.4583C35.4537 59.3551 35.5051 59.0972 35.6078 58.8908L36.173 57.5495C36.1987 57.4979 36.2244 57.4721 36.2758 57.4721H38.5623V57.4463ZM36.4557 56.982C36.43 56.982 36.43 56.9304 36.43 56.9046L37.4062 54.6088C37.4062 54.583 37.4319 54.5056 37.4576 54.5056C37.4833 54.5056 37.4833 54.5572 37.509 54.6088L38.4339 56.9046C38.4596 56.9304 38.4339 56.9562 38.3825 56.9562H36.4557V56.982Z" fill="#009B44"/>
<path fill-rule="evenodd" clip-rule="evenodd" d="M39.0248 52.4936C39.333 52.4936 39.5129 52.2872 39.5129 52.0292C39.5129 51.7713 39.3074 51.6165 39.0248 51.6165C38.6908 51.6165 38.5366 51.8487 38.5366 52.055C38.5623 52.2356 38.7165 52.4936 39.0248 52.4936Z" fill="#009B44"/>
<path fill-rule="evenodd" clip-rule="evenodd" d="M36.5072 52.4936C36.7898 52.4936 36.9953 52.2872 36.9953 52.0292C36.9953 51.7713 36.7898 51.6165 36.5072 51.6165C36.1732 51.6165 36.019 51.8745 36.019 52.055C36.019 52.2356 36.1732 52.4936 36.5072 52.4936Z" fill="#009B44"/>
<path fill-rule="evenodd" clip-rule="evenodd" d="M0.693663 58.9424C0.64228 59.2519 0.565207 59.6388 0.282603 59.6904C0.128456 59.7162 0.256912 59.7162 0.154147 59.7162C0.0513824 59.7162 0 59.742 0 59.7936C0 59.871 0.0770736 59.8968 0.179838 59.8968C0.488133 59.8968 0.796428 59.871 1.00196 59.871C1.1818 59.871 1.4644 59.8968 1.90115 59.8968C2.0553 59.8968 2.15806 59.871 2.15806 59.7936C2.15806 59.742 2.08099 59.7162 2.00391 59.7162C1.90115 59.7162 1.95253 59.7162 1.77269 59.6904C1.59286 59.6646 1.4644 59.5614 1.4644 59.3809C1.4644 59.2261 1.49009 59.0971 1.51578 58.9424L2.0553 55.2278C2.41497 55.9243 3.03156 57.1109 3.13433 57.3173C3.26278 57.5752 4.0849 58.9939 4.31612 59.4325C4.47027 59.7162 4.59873 59.8968 4.6758 59.8968C4.77857 59.8968 4.82995 59.7936 5.06117 59.3809L7.2963 55.1246H7.34769L7.96428 59.2519C7.98997 59.5099 7.6046 59.613 7.52753 59.6388C7.45045 59.6646 7.42476 59.6904 7.42476 59.742C7.42476 59.7936 7.47614 59.8194 7.70736 59.8452C8.14411 59.8968 9.55713 59.8968 9.81404 59.8968C9.9425 59.8968 10.071 59.871 10.071 59.7936C10.071 59.742 9.99388 59.7162 9.91681 59.7162C9.78835 59.7162 9.9425 59.7162 9.6599 59.613C9.3516 59.5357 9.24884 59.2519 9.14607 58.6586L8.22119 52.9062C8.1955 52.6999 8.11842 52.6225 8.04135 52.6225C7.93858 52.6225 7.8872 52.6999 7.81013 52.8547L5.00979 58.1943L2.18375 52.9062C2.0553 52.6741 1.97822 52.6225 1.90115 52.6225C1.79839 52.6225 1.747 52.7257 1.72131 52.8547L0.693663 58.9424Z" fill="#009B44"/>
<path fill-rule="evenodd" clip-rule="evenodd" d="M13.1026 57.1625C13.1026 58.0396 13.1026 58.7618 13.0512 59.1488C13.0255 59.4325 12.9484 59.6389 12.7686 59.6647C12.6658 59.6905 12.6144 59.6905 12.4603 59.6905C12.3318 59.6905 12.3062 59.7163 12.3062 59.7679C12.3062 59.8452 12.3832 59.871 12.5117 59.871C12.9227 59.871 13.5393 59.8452 13.7449 59.8452C14.3614 59.8452 15.0551 59.8968 16.6223 59.8968C17.0076 59.8968 17.1104 59.8968 17.1875 59.6647C17.2389 59.4841 17.3159 59.0198 17.3159 58.8134C17.3159 58.7103 17.3159 58.6587 17.2389 58.6587C17.1618 58.6587 17.1361 58.6845 17.1361 58.7876C17.059 59.1746 16.9306 59.2004 16.6737 59.3035C16.3911 59.4067 15.98 59.4067 15.6974 59.4067C14.6441 59.4067 14.4642 59.252 14.4642 58.6071C14.4642 58.3491 14.4642 57.4979 14.4642 57.1625V56.4403C14.4642 56.3887 14.4899 56.3371 14.5413 56.3371C14.7725 56.3371 15.8002 56.3371 16.0057 56.3629C16.3654 56.3887 16.5195 56.5434 16.5709 56.724C16.5966 56.8272 16.5966 56.7756 16.5966 56.8788C16.5966 56.9046 16.6223 56.9562 16.6994 56.9562C16.8021 56.9562 16.8021 56.853 16.8021 56.8014C16.8021 56.724 16.8278 56.5434 16.8535 56.3629C16.8792 55.8986 16.9306 55.7438 16.9306 55.6922C16.9306 55.6406 16.9049 55.6148 16.8535 55.6148C16.8021 55.6148 16.7507 55.6406 16.6994 55.718C16.5966 55.8212 16.4681 55.847 16.2112 55.8728C15.98 55.8986 14.7982 55.8986 14.567 55.8986C14.5156 55.8986 14.4899 55.847 14.4899 55.7954V53.448C14.4899 53.3706 14.5156 53.3448 14.567 53.3448C14.7725 53.3448 15.8515 53.3706 16.0314 53.3964C16.5452 53.448 16.6737 53.5512 16.725 53.7318C16.7764 53.8349 16.7764 53.8349 16.7764 53.8865C16.7764 53.9897 16.8021 54.0155 16.8792 54.0155C16.9563 54.0155 16.982 53.9639 16.982 53.9123C17.0076 53.8091 17.0076 53.577 17.0333 53.4738C17.059 53.0353 17.1104 52.9063 17.1104 52.8547C17.1104 52.8031 17.0847 52.7515 17.059 52.7515C17.0076 52.7515 16.9563 52.7773 16.9049 52.7773C16.8021 52.8031 16.648 52.8289 16.4681 52.8289C16.2626 52.8547 14.2073 52.8547 13.8733 52.8547C13.5907 52.8547 13.1026 52.8289 12.5888 52.8289C12.4346 52.8289 12.3575 52.8547 12.3575 52.9321C12.3575 52.9837 12.4089 53.0095 12.5117 53.0095C12.6658 53.0095 12.6401 53.0353 12.7429 53.0353C13.0769 53.0869 13.1797 53.2416 13.1797 53.577C13.2053 53.8607 13.2053 54.1445 13.2053 55.5374V57.1625H13.1026Z" fill="#009B44"/>
<path fill-rule="evenodd" clip-rule="evenodd" d="M22.0174 57.1625C22.0174 58.0396 22.0174 58.7618 21.966 59.1488C21.9403 59.4325 21.8632 59.6389 21.6834 59.6647C21.5806 59.6905 21.6577 59.6905 21.5035 59.6905C21.3751 59.6905 21.3494 59.7163 21.3494 59.7679C21.3494 59.8452 21.4265 59.871 21.5549 59.871C21.966 59.871 22.4284 59.8452 22.6596 59.8452C22.9422 59.8452 23.2249 59.871 23.8928 59.871C23.9956 59.871 24.0727 59.8452 24.0727 59.7679C24.0727 59.7163 24.047 59.6905 23.9185 59.6905C23.7644 59.6905 23.8928 59.6647 23.7644 59.6647C23.4561 59.6389 23.4047 59.4325 23.3533 59.1488C23.3276 58.736 23.3276 58.0138 23.3276 57.1367V53.319L24.6122 53.3448C25.5371 53.3706 25.9995 53.448 26.0252 53.6802V53.7833C26.0509 53.9123 26.0509 53.9639 26.1537 53.9639C26.205 53.9639 26.2307 53.9123 26.2564 53.8091C26.2564 53.577 26.1023 53.1127 26.1023 52.9063C26.1023 52.7773 26.1023 52.7257 26.0252 52.7257C25.9224 52.7257 25.6912 52.8289 25.0232 52.8289H20.9126C20.5787 52.8289 20.1676 52.8031 19.885 52.7773C19.6281 52.7515 19.5253 52.6741 19.4482 52.6741C19.3969 52.6741 19.3455 52.7257 19.3455 52.8547C19.3198 52.9321 19.1143 53.6028 19.1143 53.7575C19.1143 53.8607 19.1399 53.9123 19.217 53.9123C19.2684 53.9123 19.3198 53.8607 19.3198 53.8091C19.3455 53.7317 19.3969 53.6286 19.4996 53.4738C19.6538 53.2674 19.9107 53.4222 20.5273 53.3964L22.0687 53.3448V57.1625H22.0174Z" fill="#009B44"/>
<path fill-rule="evenodd" clip-rule="evenodd" d="M29.6733 60C30.2386 60 30.8038 59.9226 31.3176 59.6388C32.0626 59.2003 32.2938 58.5554 32.2938 58.0137C32.2938 57.1109 31.8571 56.5176 30.5982 55.6406L30.3156 55.46C29.4678 54.8667 29.2366 54.5314 29.2366 54.0928C29.2366 53.5253 29.699 53.1384 30.4698 53.1384C31.1634 53.1384 31.446 53.448 31.6002 53.6027C31.8314 53.8349 31.8828 53.9639 31.8828 54.0412C31.8828 54.1444 31.9085 54.196 31.9856 54.196C32.0883 54.196 32.114 54.1186 32.114 53.9123C32.114 53.19 32.1397 53.0868 32.1397 52.9836C32.1397 52.9063 32.0883 52.8805 31.9856 52.8805C31.703 52.8031 31.2919 52.6999 30.6239 52.6999C29.1852 52.6999 28.2346 53.448 28.2346 54.454C28.2346 55.2278 28.62 55.8727 29.7504 56.6724L30.2386 57.0077C31.0864 57.6268 31.2662 58.0395 31.2662 58.5038C31.2662 58.994 30.8038 59.5615 29.8789 59.5615C29.2366 59.5615 28.62 59.3293 28.3888 58.607C28.3374 58.4523 28.286 58.4265 28.286 58.3233C28.286 58.2459 28.286 58.1427 28.1833 58.1427C28.0805 58.1427 28.0548 58.2459 28.0548 58.3749C28.0291 58.5296 28.0034 58.8908 28.0034 59.4067C28.0034 59.613 28.0291 59.6646 28.2089 59.7162C28.62 59.9484 29.0824 60 29.6733 60Z" fill="#009B44"/>
<path fill-rule="evenodd" clip-rule="evenodd" d="M45.4475 55.7953C45.4218 55.7953 45.3961 55.7695 45.3961 55.7437V55.5374C45.3961 54.1186 45.3961 53.8607 45.4218 53.5769C45.4475 53.2416 45.5246 53.061 45.8072 53.0352C45.9099 53.0094 45.8329 53.0094 45.9099 53.0094C46.0384 53.0094 46.0898 52.9836 46.0898 52.9321C46.0898 52.8547 46.0127 52.8289 45.8586 52.8289C45.4475 52.8289 44.9851 52.8547 44.7538 52.8547C44.4712 52.8547 44.1116 52.8289 43.5464 52.8289C43.4179 52.8289 43.3408 52.8547 43.3408 52.9321C43.3408 52.9836 43.3922 53.0094 43.495 53.0094C43.6491 53.0094 43.572 53.0352 43.6491 53.0352C43.9831 53.0868 44.0088 53.2416 44.0345 53.5769C44.0602 53.8607 44.0602 54.1444 44.0602 55.5374V57.1625C44.0602 58.0395 44.0602 58.7618 44.0088 59.1487C43.9831 59.4325 43.906 59.6388 43.7262 59.6646C43.6234 59.6904 43.7005 59.6904 43.5464 59.6904C43.4436 59.6904 43.3922 59.7162 43.3922 59.7678C43.3922 59.8452 43.4693 59.871 43.5977 59.871C44.0345 59.871 44.4969 59.8452 44.7281 59.8452C45.0108 59.8452 45.2934 59.871 45.9613 59.871C46.0641 59.871 46.1669 59.8452 46.1669 59.7678C46.1669 59.7162 46.1155 59.6904 46.0127 59.6904C45.8586 59.6904 45.987 59.6646 45.8586 59.6646C45.5503 59.6388 45.4732 59.4325 45.4475 59.1487C45.3961 58.736 45.3961 58.0137 45.3961 57.1367V56.3112C45.3961 56.2597 45.4218 56.2597 45.4475 56.2597H49.2241C49.2498 56.2597 49.2755 56.2855 49.2755 56.3112V57.1367C49.2755 58.0137 49.2755 58.736 49.2241 59.1229C49.1984 59.4067 49.1213 59.6131 48.9415 59.6388C48.8387 59.6646 48.9158 59.6646 48.7617 59.6646C48.6332 59.6646 48.5818 59.6904 48.5818 59.742C48.5818 59.8194 48.6589 59.8452 48.813 59.8452C49.1984 59.8452 49.6866 59.8194 49.8921 59.8194C50.1747 59.8194 50.4573 59.8452 51.1253 59.8452C51.2537 59.8452 51.3565 59.8194 51.3565 59.742C51.3565 59.6904 51.3051 59.6646 51.2023 59.6646C51.0225 59.6646 51.1766 59.6388 51.0225 59.6388C50.7142 59.6131 50.6628 59.4067 50.6114 59.1229C50.5601 58.7102 50.5601 57.9879 50.5601 57.1109V55.4858C50.5601 54.0671 50.5601 53.8091 50.5857 53.5253C50.6114 53.19 50.6885 53.0094 50.9454 52.9836C51.0739 52.9578 50.9711 52.9578 51.0739 52.9578C51.1766 52.9578 51.2537 52.9321 51.2537 52.8805C51.2537 52.8031 51.1766 52.7773 51.0225 52.7773C50.6114 52.7773 50.149 52.8031 49.9178 52.8031C49.6352 52.8031 49.3012 52.7773 48.736 52.7773C48.6075 52.7773 48.5304 52.8031 48.5304 52.8805C48.5304 52.9321 48.5818 52.9578 48.6846 52.9578C48.8387 52.9578 48.6332 52.9836 48.7103 52.9836C49.0443 53.0352 49.1984 53.19 49.1984 53.5253C49.2241 53.8091 49.2241 54.0928 49.2241 55.4858V55.6922C49.2241 55.718 49.1984 55.7437 49.1727 55.7437H45.4475V55.7953Z" fill="#009B44"/>
<path fill-rule="evenodd" clip-rule="evenodd" d="M64.4593 55.5374C64.4593 54.1187 64.4593 53.8607 64.485 53.577C64.5107 53.2416 64.5877 53.0611 64.8704 53.0353C64.9988 53.0095 65.1786 53.0095 65.2814 53.0095C65.4099 53.0095 65.4613 52.9837 65.4613 52.9321C65.4613 52.8547 65.3842 52.8289 65.23 52.8289C64.819 52.8289 64.0739 52.8547 63.817 52.8547C63.5344 52.8547 63.149 52.8289 62.6609 52.8289C62.5068 52.8289 62.4297 52.8547 62.4297 52.9321C62.4297 52.9837 62.4811 53.0095 62.6095 53.0095C62.7637 53.0095 62.5581 53.0353 62.6352 53.0353C62.9692 53.0869 63.0977 53.2416 63.1233 53.577C63.149 53.8607 63.149 54.1445 63.149 55.5374V57.1625C63.149 58.0396 63.149 58.7619 63.0977 59.1488C63.0463 59.4325 62.9949 59.6389 62.7894 59.6647C62.6866 59.6905 62.7637 59.6905 62.5838 59.6905C62.4811 59.6905 62.4297 59.7163 62.4297 59.7679C62.4297 59.8453 62.4811 59.8711 62.6352 59.8711C63.0463 59.8711 63.5087 59.8453 63.7399 59.8453C64.5621 59.8453 65.2557 59.8968 66.7458 59.8968C67.2853 59.8968 67.3367 59.8453 67.4138 59.6389C67.4909 59.3809 67.5679 58.865 67.5679 58.7619C67.5679 58.6587 67.5422 58.6071 67.4909 58.6071C67.3881 58.6071 67.3881 58.6587 67.3624 58.7361C67.3367 58.9166 67.2339 58.994 67.1055 59.0972C66.8486 59.3551 66.4375 59.3809 65.898 59.3809C65.0759 59.3809 64.819 59.3036 64.6391 59.1746C64.4079 58.994 64.4079 58.3491 64.4079 57.1625V55.5374H64.4593Z" fill="#009B44"/>
<path fill-rule="evenodd" clip-rule="evenodd" d="M71.7039 55.5374C71.7039 54.1187 71.7039 53.8607 71.7295 53.577C71.7552 53.2416 71.8323 53.0611 72.1149 53.0353C72.2177 53.0095 72.2177 53.0095 72.3204 53.0095C72.4489 53.0095 72.526 52.9837 72.526 52.9321C72.526 52.8547 72.4489 52.8289 72.2947 52.8289C71.8837 52.8289 71.3185 52.8547 71.0616 52.8547C70.779 52.8547 70.3165 52.8289 69.8284 52.8289C69.6742 52.8289 69.5972 52.8547 69.5972 52.9321C69.5972 52.9837 69.6742 53.0095 69.777 53.0095C69.9055 53.0095 69.8541 53.0353 69.9312 53.0353C70.2908 53.0869 70.3679 53.2416 70.3679 53.577C70.3936 53.8607 70.3936 54.1445 70.3936 55.5374V57.1625C70.3936 58.0396 70.3936 58.7619 70.3422 59.1488C70.3165 59.4325 70.2395 59.6389 70.0339 59.6647C69.9312 59.6905 70.0082 59.6905 69.8541 59.6905C69.7256 59.6905 69.6742 59.7163 69.6742 59.7679C69.6742 59.8453 69.7513 59.8711 69.8798 59.8711C70.3165 59.8711 70.7533 59.8453 71.0102 59.8453C71.8323 59.8453 72.526 59.8968 74.0161 59.8968C74.5556 59.8968 74.607 59.8453 74.6583 59.6389C74.7611 59.3809 74.8382 58.865 74.8382 58.7619C74.8382 58.6587 74.8125 58.6071 74.7354 58.6071C74.6583 58.6071 74.6326 58.6587 74.6326 58.7361C74.607 58.9166 74.4785 58.994 74.3757 59.0972C74.1188 59.3551 73.7078 59.3809 73.1426 59.3809C72.3461 59.3809 72.0635 59.3036 71.9094 59.1746C71.6782 58.994 71.6782 58.3491 71.6782 57.1625V55.5374H71.7039Z" fill="#009B44"/>
<path fill-rule="evenodd" clip-rule="evenodd" d="M77.6643 57.1625C77.6643 58.0654 77.6643 58.8134 77.6129 59.2004C77.5872 59.4841 77.5101 59.6389 77.3303 59.6647C77.2275 59.6905 77.2789 59.6905 77.1505 59.6905C77.022 59.6905 76.9706 59.7163 76.9706 59.7679C76.9706 59.8453 77.0477 59.8711 77.1762 59.8711C77.5872 59.8711 78.0754 59.8453 78.2809 59.8453C78.5635 59.8453 78.8461 59.8711 79.5141 59.8711C79.6425 59.8711 79.7196 59.8453 79.7196 59.7679C79.7196 59.7163 79.6682 59.6905 79.5398 59.6905C79.3856 59.6905 79.5398 59.6647 79.3856 59.6647C79.0773 59.6389 79.0002 59.4583 78.9489 59.2262C78.8975 58.8134 78.8975 58.0654 78.8975 57.1625V55.5374C78.8975 54.1187 78.8975 53.8607 78.9232 53.577C78.9489 53.2416 79.0259 53.0611 79.3085 53.0353C79.437 53.0095 79.3342 53.0095 79.437 53.0095C79.5398 53.0095 79.5911 52.9837 79.5911 52.9063C79.5911 52.8547 79.4884 52.8289 79.3599 52.8289C78.9745 52.8289 78.5378 52.8547 78.2809 52.8547C77.9726 52.8547 77.5102 52.8289 77.1248 52.8289C76.9706 52.8289 76.8936 52.8547 76.8936 52.9063C76.8936 52.9837 76.9449 53.0095 77.0477 53.0095C77.1505 53.0095 77.1248 53.0353 77.2275 53.0353C77.4588 53.0869 77.5615 53.2416 77.5872 53.577C77.6129 53.8607 77.6129 54.1445 77.6129 55.5374V57.1625H77.6643Z" fill="#009B44"/>
<path fill-rule="evenodd" clip-rule="evenodd" d="M84.7037 57.1625C84.7037 58.0395 84.7037 58.7618 84.678 59.1487C84.6523 59.4325 84.5752 59.6388 84.3697 59.6646C84.267 59.6904 84.344 59.6904 84.1899 59.6904C84.0871 59.6904 84.01 59.7162 84.01 59.7678C84.01 59.8452 84.0871 59.871 84.2413 59.871C84.6523 59.871 85.1148 59.8452 85.346 59.8452C85.6286 59.8452 85.9112 59.871 86.5792 59.871C86.7076 59.871 86.7847 59.8452 86.7847 59.7678C86.7847 59.7162 86.7333 59.6904 86.6049 59.6904C86.4507 59.6904 86.6049 59.6646 86.4507 59.6646C86.1424 59.6388 86.091 59.4325 86.0396 59.1487C85.9883 58.736 85.9883 58.0137 85.9883 57.1367V53.319L87.2985 53.3448C88.1977 53.3706 88.5574 53.5511 88.5574 53.5511C88.5574 53.7059 88.7372 53.9897 88.8143 53.9897C88.8914 53.9897 88.9171 53.9381 88.9171 53.8349C88.9171 53.6027 88.7629 53.1384 88.7629 52.932C88.7629 52.8031 88.7372 52.7515 88.6602 52.7515C88.5831 52.7515 88.3519 52.8547 87.6839 52.8547H83.599C83.2393 52.8547 82.8539 52.8289 82.5713 52.8031C82.3144 52.7773 82.2117 52.6999 82.1346 52.6999C82.0832 52.6999 82.0318 52.7515 82.0061 52.8805C81.9804 52.9578 81.7749 53.6285 81.7749 53.7833C81.7749 53.8865 81.8006 53.9381 81.8777 53.9381C81.9547 53.9381 81.9804 53.8865 82.0061 53.8349C82.0318 53.7575 82.0832 53.6543 82.186 53.4995C82.3401 53.2932 82.597 53.448 83.1879 53.4222L84.7294 53.3706V57.1625H84.7037Z" fill="#009B44"/>
<path fill-rule="evenodd" clip-rule="evenodd" d="M91.2296 56.8788C91.2296 58.2201 91.6149 58.9166 92.1288 59.3551C92.8738 59.9742 93.8758 60 94.4153 60C95.0833 60 95.8283 59.8968 96.5476 59.3293C97.4212 58.6586 97.5239 57.5752 97.5239 56.5176V55.5116C97.5239 54.0929 97.5239 53.8349 97.5496 53.5512C97.5753 53.2158 97.6524 53.0353 97.935 53.0095C98.0634 52.9837 97.935 52.9837 98.0377 52.9837C98.1662 52.9837 98.2176 52.9579 98.2176 52.9063C98.2176 52.8289 98.1405 52.8031 98.0121 52.8031C97.601 52.8031 97.1386 52.8289 97.0101 52.8289C96.9844 52.8289 96.1623 52.8031 95.6485 52.8031C95.4943 52.8031 95.4172 52.8289 95.4172 52.9063C95.4172 52.9579 95.4686 52.9837 95.5971 52.9837C95.7255 52.9837 96.0852 53.0095 96.1623 53.0095C96.4963 53.0611 96.5733 53.2158 96.599 53.5512C96.6247 53.8349 96.6247 54.1187 96.6247 55.5116V56.6724C96.6247 57.6268 96.5733 58.4781 96.0081 58.9682C95.5971 59.3551 95.0576 59.4841 94.5951 59.4841C94.2354 59.4841 93.773 59.4583 93.3106 59.0972C92.7967 58.736 92.4884 58.1427 92.4884 56.8014V55.5116C92.4884 54.0929 92.4884 53.8349 92.5141 53.5512C92.5398 53.2158 92.6169 53.0353 92.8995 53.0095C93.0023 52.9837 92.8995 52.9837 93.0023 52.9837C93.105 52.9837 93.1821 52.9579 93.1821 52.9063C93.1821 52.8289 93.105 52.8031 92.9509 52.8031C92.5655 52.8031 92.1031 52.8289 91.8719 52.8289C91.5636 52.8289 91.1011 52.8031 90.5359 52.8031C90.3818 52.8031 90.3047 52.8289 90.3047 52.9063C90.3047 52.9579 90.3818 52.9837 90.4845 52.9837C90.6387 52.9837 90.613 53.0095 90.6901 53.0095C91.0497 53.0611 91.1268 53.2158 91.1268 53.5512C91.1525 53.8349 91.1525 54.1187 91.1525 55.5116V56.8788H91.2296Z" fill="#009B44"/>
<path fill-rule="evenodd" clip-rule="evenodd" d="M102.405 60C102.945 60 103.536 59.9226 104.049 59.6388C104.794 59.2003 105 58.5554 105 58.0137C105 57.1109 104.563 56.5176 103.304 55.6406L102.996 55.46C102.148 54.8667 101.917 54.5314 101.917 54.0928C101.917 53.5253 102.379 53.1384 103.15 53.1384C103.818 53.1384 104.126 53.448 104.281 53.6027C104.512 53.8349 104.563 53.9639 104.563 54.0412C104.563 54.1444 104.589 54.196 104.666 54.196C104.769 54.196 104.769 54.1186 104.769 53.9123C104.769 53.19 104.794 53.0868 104.794 52.9836C104.794 52.9063 104.769 52.8805 104.666 52.8805C104.383 52.8031 103.972 52.6999 103.279 52.6999C101.866 52.6999 100.889 53.448 100.889 54.454C100.889 55.2278 101.3 55.8727 102.431 56.6724L102.919 57.0077C103.767 57.6268 103.921 58.0395 103.921 58.5038C103.921 58.994 103.484 59.5615 102.559 59.5615C101.917 59.5615 101.3 59.3293 101.069 58.607C101.018 58.4523 100.966 58.4265 100.966 58.3233C100.966 58.2459 100.941 58.1427 100.864 58.1427C100.787 58.1427 100.761 58.2459 100.761 58.3749C100.735 58.5296 100.709 58.8908 100.709 59.4067C100.709 59.613 100.735 59.6646 100.889 59.7162C101.326 59.9484 101.789 60 102.405 60Z" fill="#009B44"/>
</svg>
