<svg width="34" height="34" viewBox="0 0 34 34" fill="none" xmlns="http://www.w3.org/2000/svg">
<rect width="34" height="34" fill="black" fill-opacity="0"/>
<path d="M24.4455 10.4579C23.7999 10.8453 23.1113 11.1465 22.3366 11.2757C21.7341 10.6301 20.8733 10.1997 19.9265 10.1997C18.1189 10.1997 16.6126 11.706 16.6126 13.5997C16.6126 13.8579 16.6556 14.1162 16.6986 14.3744C13.9442 14.2453 11.5341 12.8681 9.89862 10.8453C9.59735 11.3617 9.46824 11.9212 9.46824 12.5668C9.46824 13.7288 10.0708 14.7617 10.9315 15.4073C10.372 15.4073 9.89863 15.2352 9.42521 14.9769V15.02C9.42521 16.6554 10.5442 18.0326 12.0936 18.3339C11.8353 18.42 11.5341 18.463 11.2328 18.463C11.0176 18.463 10.8024 18.463 10.6303 18.42C11.0606 19.7541 12.2657 20.744 13.729 20.7871C12.61 21.6908 11.1898 22.2503 9.6404 22.2503C9.38217 22.2503 9.12395 22.2503 8.86572 22.2073C10.329 23.1541 12.0505 23.7136 13.9442 23.7136C20.0126 23.7136 23.3695 18.5491 23.3695 14.0731C23.3695 13.944 23.3695 13.7719 23.3695 13.6427C24.0151 13.1693 24.5746 12.5668 25.005 11.8782C24.4024 12.1364 23.7569 12.3516 23.1113 12.3946C23.6708 11.8782 24.1872 11.2326 24.4455 10.4579Z" fill="#24A9E6"/>
<path d="M17 34C7.61771 34 -1.05073e-05 26.3823 -1.05073e-05 17C-1.05073e-05 7.61772 7.61771 1.31341e-06 17 1.31341e-06C26.3823 1.31341e-06 34 7.61772 34 17C34 26.3823 26.3823 34 17 34ZM17 1.29114C8.34936 1.29114 1.29113 8.34936 1.29113 17C1.29113 25.6506 8.34936 32.7089 17 32.7089C25.6506 32.7089 32.7089 25.6506 32.7089 17C32.7089 8.34936 25.6506 1.29114 17 1.29114Z" fill="#24A9E6"/>
</svg>
